<?xml version="1.0" ?><svg data-name="Layer 2" id="Layer_2" viewBox="0 0 35 35" xmlns="http://www.w3.org/2000/svg"><path d="M14.56,17s2.64-.51,2.62-4.6S13,7.75,11.32,7.7s-9.82,0-9.82,0V27.32H12.36s5.47,0,5.44-6.23A4.17,4.17,0,0,0,14.56,17ZM5.92,11h5a2.23,2.23,0,0,1,0,4.46h-5Zm5,12.9H6.05V18.63h4.84a2.63,2.63,0,1,1,0,5.25Z"/><path d="M25.88,12.24c-8.7.11-6.15,11-6.15,11a6.85,6.85,0,0,0,6.71,4.08c5.13-.13,6.47-3.26,6.63-4.52H29.4s-.5,1.58-3,1.56S23,22.53,23,20.71H33.45S34.59,12.14,25.88,12.24ZM23,18.18a3.17,3.17,0,0,1,3.16-3.08,3.38,3.38,0,0,1,3.51,3.08Z"/><rect height="1.91" width="7.87" x="22.32" y="8.41"/></svg>