<svg width="24" height="24" viewBox="0 0 24 24" fill="none" xmlns="http://www.w3.org/2000/svg">
<path d="M9.98399 13.6572C9.98399 13.6572 11.7943 13.3074 11.7806 10.5029C11.7669 7.69829 8.91428 7.31429 7.76228 7.28001C6.61028 7.24572 1.02856 7.28001 1.02856 7.28001V20.7337H8.47542C8.47542 20.7337 12.2263 20.7337 12.2057 16.4617C12.2096 15.8113 11.9916 15.1789 11.5877 14.669C11.1838 14.1591 10.6181 13.8022 9.98399 13.6572ZM4.05942 9.54287H7.48799C7.89355 9.54287 8.28249 9.70397 8.56926 9.99074C8.85603 10.2775 9.01714 10.6665 9.01714 11.072C9.01714 11.4776 8.85603 11.8665 8.56926 12.1533C8.28249 12.44 7.89355 12.6012 7.48799 12.6012H4.05942V9.54287ZM7.48799 18.3886H4.14856V14.7749H7.46742C7.71315 14.7597 7.95937 14.795 8.19094 14.8786C8.4225 14.9622 8.6345 15.0923 8.81387 15.2609C8.99323 15.4296 9.13618 15.6331 9.23389 15.8591C9.33159 16.0851 9.382 16.3287 9.382 16.5749C9.382 16.8211 9.33159 17.0646 9.23389 17.2906C9.13618 17.5166 8.99323 17.7202 8.81387 17.8888C8.6345 18.0574 8.4225 18.1875 8.19094 18.2711C7.95937 18.3547 7.71315 18.39 7.46742 18.3749L7.48799 18.3886Z" fill="black"/>
<path d="M17.7462 10.3931C11.7805 10.4686 13.5291 17.936 13.5291 17.936C13.9166 18.8178 14.5659 19.5592 15.389 20.0597C16.212 20.5601 17.169 20.7954 18.1302 20.7337C21.648 20.6446 22.5668 18.4983 22.6765 17.6343H20.16C20.16 17.6343 19.8171 18.7177 18.1028 18.704C16.3885 18.6903 15.7714 17.4491 15.7714 16.2011H22.9371C22.9371 16.2011 23.7188 10.3246 17.7462 10.3931ZM15.7714 14.4663C15.7874 13.9017 16.0226 13.3656 16.427 12.9714C16.8315 12.5772 17.3735 12.3558 17.9382 12.3543C18.5341 12.329 19.1168 12.5345 19.565 12.9278C20.0133 13.3212 20.2927 13.8722 20.3451 14.4663H15.7714Z" fill="black"/>
<path d="M20.7017 7.76685H15.3052V9.07656H20.7017V7.76685Z" fill="black"/>
</svg>
